#!OML:ASF F:\VICON\USERDATA\INSTALL\rory3\rory3.ASF
:FULLY-SPECIFIED
:DEGREES
571
root 0.619456 29.2096 -7.16837 0.185494 -75.4972 8.51875
lowerback 2.16771 1.20621 -0.495949
upperback -0.028677 1.60776 1.36623
thorax -1.29699 0.808492 1.62508
lowerneck -14.8814 3.96761 -9.07625
upperneck 40.8806 8.11308 -0.720736
head 17.1803 1.30715 2.59411
rclavicle -8.74653e-015 7.15625e-015
rhumerus -22.8875 -12.8518 -67.5006
rradius 37.0128
rwrist 14.6061
rhand -24.1917 2.60878
rfingers 7.12502
rthumb 2.29223 -27.3587
lclavicle -8.74653e-015 7.15625e-015
lhumerus -35.843 23.6925 70.7308
lradius 23.9199
lwrist -11.5317
lhand -11.7342 26.2747
lfingers 7.12502
lthumb 14.3131 55.7614
rfemur -16.6107 -4.88495 22.5795
rtibia 29.3348
rfoot -28.1816 -14.5047
rtoes 19.9303
lfemur -20.6761 10.4667 -26.2592
ltibia 27.7525
lfoot -10.5121 18.5949
ltoes -3.46849
572
root 0.61186 29.2087 -7.16416 0.42505 -75.0175 8.23986
lowerback 2.13075 1.25646 -0.498517
upperback -0.0394503 1.67443 1.30045
thorax -1.28756 0.84185 1.55749
lowerneck -14.6989 4.05555 -8.7731
upperneck 40.7548 8.25026 -1.02159
head 17.0962 1.38394 2.42354
rclavicle -9.93923e-015 3.18055e-015
rhumerus -22.9723 -13.4987 -67.3838
rradius 37.0551
rwrist 16.2218
rhand -22.1997 4.47669
rfingers 7.12502
rthumb 4.21589 -25.4613
lclavicle -9.93923e-015 3.18055e-015
lhumerus -35.8764 23.8489 70.7245
lradius 23.7388
lwrist -11.3699
lhand -11.784 26.2434
lfingers 7.12502
lthumb 14.2652 55.7335
rfemur -16.5107 -4.99503 22.6286
rtibia 29.319
rfoot -28.1257 -14.9979
rtoes 18.8221
lfemur -20.4342 9.8054 -26.1562
ltibia 27.4592
lfoot -10.6355 18.7143
ltoes -3.31691
573
root 0.602543 29.2053 -7.16136 0.657519 -74.5762 7.97863
lowerback 2.09107 1.26664 -0.608256
upperback -0.068259 1.68604 1.33683
thorax -1.29951 0.848759 1.65646
lowerneck -14.3636 4.19475 -8.55778
upperneck 40.5425 8.50338 -1.42802
head 16.9284 1.48782 2.23346
rclavicle 5.81445e-014 -3.97569e-015
rhumerus -22.9608 -14.1071 -67.1925
rradius 37.0773
rwrist 18.1974
rhand -21.444 5.06403
rfingers 7.12502
rthumb 4.94565 -24.8583
lclavicle 5.81445e-014 -3.97569e-015
lhumerus -36.0568 24.3365 70.6725
lradius 23.6074
lwrist -11.247
lhand -11.9946 26.1072
lfingers 7.12502
lthumb 14.0622 55.6114
rfemur -16.3468 -5.15951 22.6763
rtibia 29.1402
rfoot -28.4393 -14.7438
rtoes 21.0848
lfemur -20.3057 9.16786 -26.0772
ltibia 27.365
lfoot -10.1365 18.9328
ltoes -5.13303
574
root 0.588358 29.2007 -7.16106 2.50855 -74.1182 5.86377
lowerback 2.21288 1.39594 -0.207739
upperback -0.0690271 1.86874 1.42095
thorax -1.36472 0.937258 1.50903
lowerneck -14.3754 4.11498 -8.5069
upperneck 40.5849 8.36439 -1.36883
head 16.9581 1.4491 2.23078
rclavicle -7.05686e-015 -2.38542e-015
rhumerus -23.1711 -14.1866 -67.3023
rradius 37.2608
rwrist 18.2272
rhand -21.5655 5.09009
rfingers 7.12502
rthumb 4.82831 -24.8349
lclavicle -7.05686e-015 -2.38542e-015
lhumerus -36.2662 24.7131 70.5513
lradius 23.7217
lwrist -11.4881
lhand -11.9588 26.1445
lfingers 7.12502
lthumb 14.0967 55.6464
rfemur -15.9499 -5.32716 23.2869
rtibia 28.9159
rfoot -28.8632 -14.5739
rtoes 22.8368
lfemur -20.0317 8.5454 -25.3888
ltibia 27.3475
lfoot -10.1094 19.0595
ltoes -5.63586
575
root 0.570697 29.1947 -7.16231 5.24259 -73.5801 2.63289
lowerback 2.50318 1.64917 0.794055
upperback -0.0378501 2.23376 1.30513
thorax -1.46277 1.11121 0.808965
lowerneck -14.3942 3.95732 -7.94011
upperneck 40.6748 7.93883 -1.28259
head 17.0454 1.3753 2.10606
rclavicle -2.69353e-014 1.27222e-014
rhumerus -23.6908 -14.3724 -67.9253
rradius 37.579
rwrist 16.9745
rhand -22.0562 4.81074
rfingers 7.12502
rthumb 4.35454 -25.1245
lclavicle -2.69353e-014 1.27222e-014
lhumerus -36.2485 24.5752 70.2423
lradius 23.9451
lwrist -11.9279
lhand -11.7452 26.4062
lfingers 7.12502
lthumb 14.3025 55.8936
rfemur -15.3844 -5.34622 24.2831
rtibia 28.8153
rfoot -29.2799 -14.9559
rtoes 22.7241
lfemur -19.534 8.17424 -24.2988
ltibia 27.2494
lfoot -10.3031 18.8937
ltoes -5.23366
576
root 0.560556 29.1901 -7.15738 5.64188 -73.048 2.21101
lowerback 2.50893 1.80161 1.12875
upperback -0.142011 2.44572 0.976219
thorax -1.54627 1.21372 0.275362
lowerneck -14.2132 3.94161 -7.5164
upperneck 40.6664 7.70488 -1.11724
head 17.0038 1.37983 2.06338
rclavicle -4.22417e-014 1.59028e-015
rhumerus -24.2139 -14.7498 -68.4905
rradius 37.9022
rwrist 16.4305
rhand -22.4921 4.46063
rfingers 7.12502
rthumb 3.93357 -25.4828
lclavicle -4.22417e-014 1.59028e-015
lhumerus -36.1889 24.1295 70.0056
lradius 23.977
lwrist -11.8271
lhand -11.3341 26.5522
lfingers 7.12502
lthumb 14.6986 56.0111
rfemur -15.3173 -5.49347 24.4397
rtibia 28.8284
rfoot -29.7056 -15.1954
rtoes 22.7634
lfemur -19.4146 7.94321 -24.1658
ltibia 27.075
lfoot -10.4483 18.6523
ltoes -4.50056
577
root 0.556292 29.187 -7.14631 3.67933 -72.616 4.62359
lowerback 2.22177 1.87099 0.202234
upperback -0.349441 2.51131 0.856101
thorax -1.63216 1.25513 0.672912
lowerneck -14.1036 3.93175 -7.6588
upperneck 40.7202 7.76753 -1.20266
head 17.0067 1.37141 2.05804
rclavicle -2.59414e-014 -7.95139e-016
rhumerus -24.6274 -14.2848 -68.4476
rradius 38.3094
rwrist 16.176
rhand -22.5907 4.29113
rfingers 7.12502
rthumb 3.83835 -25.654
lclavicle -2.59414e-014 -7.95139e-016
lhumerus -36.4078 24.1181 70.2404
lradius 23.9368
lwrist -11.4872
lhand -11.1765 26.5879
lfingers 7.12502
lthumb 14.8504 56.0357
rfemur -15.753 -5.92237 23.6717
rtibia 29.0051
rfoot -29.8642 -15.148
rtoes 22.7901
lfemur -19.6049 7.61595 -25.0466
ltibia 26.7772
lfoot -10.7724 18.5448
ltoes -3.38943
578
root 0.549394 29.1824 -7.13313 3.09396 -72.1698 5.35442
lowerback 2.07834 1.9277 -0.386038
upperback -0.422733 2.57364 1.01146
thorax -1.66082 1.29304 1.16167
lowerneck -14.0811 3.94984 -7.95241
upperneck 40.736 7.93092 -1.27552
head 16.9999 1.38559 2.10395
rclavicle 4.49253e-014 1.74931e-014
rhumerus -24.8846 -13.462 -68.2444
rradius 38.6796
rwrist 16.2031
rhand -22.9335 3.75004
rfingers 7.12502
rthumb 3.50732 -26.2008
lclavicle 4.49253e-014 1.74931e-014
lhumerus -36.7024 24.544 70.5727
lradius 24.0231
lwrist -11.4541
lhand -11.5484 26.6214
lfingers 7.12502
lthumb 14.4922 56.0953
rfemur -16.0073 -6.32953 23.4121
rtibia 29.3899
rfoot -29.8781 -15.404
rtoes 21.3269
lfemur -19.4309 7.40639 -25.363
ltibia 26.2611
lfoot -10.9777 18.2998
ltoes -2.93498
579
root 0.539604 29.1765 -7.12191 3.43488 -71.7198 4.95299
lowerback 2.07744 2.03336 -0.40692
upperback -0.456553 2.71461 1.03642
thorax -1.7006 1.36401 1.19296
lowerneck -14.198 3.90519 -7.97493
upperneck 40.8245 7.90525 -1.26256
head 17.0793 1.36937 2.11642
rclavicle -2.00773e-014 1.03368e-014
rhumerus -25.2099 -13.1515 -68.2167
rradius 38.9747
rwrist 16.7331
rhand -23.3486 3.01821
rfingers 7.12502
rthumb 3.10646 -26.9389
lclavicle -2.00773e-014 1.03368e-014
lhumerus -36.7725 24.5409 70.7806
lradius 24.1144
lwrist -11.226
lhand -12.1103 26.8807
lfingers 7.12502
lthumb 13.9507 56.3926
rfemur -16.0446 -6.58037 23.5152
rtibia 29.7441
rfoot -29.9306 -15.8722
rtoes 19.2913
lfemur -19.0917 7.38086 -25.2806
ltibia 25.7481
lfoot -10.8683 17.9138
ltoes -3.46705
